<?xml version="1.0" encoding="UTF-8" standalone="no"?>
<svg
   xmlns:dc="http://purl.org/dc/elements/1.1/"
   xmlns:cc="http://creativecommons.org/ns#"
   xmlns:rdf="http://www.w3.org/1999/02/22-rdf-syntax-ns#"
   xmlns:svg="http://www.w3.org/2000/svg"
   xmlns="http://www.w3.org/2000/svg"
   xmlns:sodipodi="http://sodipodi.sourceforge.net/DTD/sodipodi-0.dtd"
   xmlns:inkscape="http://www.inkscape.org/namespaces/inkscape"
   viewBox="0 0 1600 900"
   version="1.1"
   id="svg28"
   sodipodi:docname="back.svg"
   inkscape:version="0.92.4 5da689c313, 2019-01-14">
  <metadata
     id="metadata34">
    <rdf:RDF>
      <cc:Work
         rdf:about="">
        <dc:format>image/svg+xml</dc:format>
        <dc:type
           rdf:resource="http://purl.org/dc/dcmitype/StillImage" />
      </cc:Work>
    </rdf:RDF>
  </metadata>
  <defs
     id="defs32" />
  <sodipodi:namedview
     pagecolor="#ffffff"
     bordercolor="#666666"
     borderopacity="1"
     objecttolerance="10"
     gridtolerance="10"
     guidetolerance="10"
     inkscape:pageopacity="0"
     inkscape:pageshadow="2"
     inkscape:window-width="1916"
     inkscape:window-height="1044"
     id="namedview30"
     showgrid="false"
     inkscape:zoom="0.3925"
     inkscape:cx="494.6911"
     inkscape:cy="532.8879"
     inkscape:window-x="0"
     inkscape:window-y="16"
     inkscape:window-maximized="0"
     inkscape:current-layer="svg28" />
  <polygon
     points="539,900 1396,900 957,450 "
     id="polygon4"
     style="fill:#0b486b;fill-opacity:1"
     transform="matrix(0.83014862,0,0,0.83014862,140.12739,152.86624)" />
  <polygon
     points="872.9,900 1396,900 957,450 "
     id="polygon6"
     style="fill:#0b0e2d;fill-opacity:1;opacity:0.609"
     transform="matrix(0.83014862,0,0,0.83014862,140.12739,152.86624)" />
  <polygon
     points="398,662 816,900 -60,900 "
     id="polygon8"
     style="fill:#3b8686;fill-opacity:1"
     transform="matrix(0.83014862,0,0,0.83014862,140.12739,152.86624)" />
  <polygon
     points="398,662 816,900 337,900 "
     id="polygon10"
     style="fill:#0b0e2d;fill-opacity:1;opacity:0.609"
     transform="matrix(0.83014862,0,0,0.83014862,140.12739,152.86624)" />
  <polygon
     points="1552,900 876,900 1203,546 "
     id="polygon12"
     style="fill:#3b8686;fill-opacity:1"
     transform="matrix(0.83014862,0,0,0.83014862,140.12739,152.86624)" />
  <polygon
     points="1552,900 1162,900 1203,546 "
     id="polygon14"
     style="fill:#0b0e2d;fill-opacity:1;opacity:0.609"
     transform="matrix(0.83014862,0,0,0.83014862,140.12739,152.86624)" />
  <polygon
     points="886,900 367,900 641,695 "
     id="polygon16"
     style="fill:#79bd9a;fill-opacity:1"
     transform="matrix(0.83014862,0,0,0.83014862,140.12739,152.86624)" />
  <polygon
     points="641,695 886,900 587,900 "
     id="polygon18"
     style="fill:#0b0e2d;fill-opacity:1;opacity:0.609"
     transform="matrix(0.83014862,0,0,0.83014862,140.12739,152.86624)" />
  <polygon
     points="1401,632 1096,900 1710,900 "
     id="polygon20"
     style="fill:#79bd9a;fill-opacity:1"
     transform="matrix(0.83014862,0,0,0.83014862,140.12739,152.86624)" />
  <polygon
     points="1401,632 1365,900 1710,900 "
     id="polygon22"
     style="fill:#0b0e2d;fill-opacity:1;opacity:0.609"
     transform="matrix(0.83014862,0,0,0.83014862,140.12739,152.86624)" />
  <polygon
     points="971,687 725,900 1210,900 "
     id="polygon24"
     style="fill:#cff09e;fill-opacity:1"
     transform="matrix(0.83014862,0,0,0.83014862,140.12739,152.86624)" />
  <polygon
     points="1210,900 971,687 943,900 "
     id="polygon26"
     style="fill:#0b0e2d;fill-opacity:1;opacity:0.609"
     transform="matrix(0.83014862,0,0,0.83014862,140.12739,152.86624)" />
  <rect
     style="opacity:1;fill:#cff09e;fill-opacity:1;stroke:none;stroke-width:5;stroke-linecap:round;stroke-linejoin:round;stroke-miterlimit:4;stroke-dasharray:none;stroke-dashoffset:0;stroke-opacity:1;paint-order:markers stroke fill"
     id="rect844"
     width="3.603092"
     height="12.610822"
     x="1399.8011"
     y="1103.5747" />
</svg>
